<?xml version="1.0" encoding="UTF-8"?>
<svg
        version="1.1"
        xmlns="http://www.w3.org/2000/svg"
        xml:space="preserve"
        viewBox="0 0 1440 1440"
        style="fill-rule:evenodd;clip-rule:evenodd;stroke-linejoin:round;stroke-miterlimit:2;"
>
  <g transform="matrix(0.888889,0,0,0.888889,80,80)">
    <path
            d="M1462.23,377.008L1462.23,1062.99C1462.23,1283.34 1283.34,1462.23 1062.99,1462.23L377.008,1462.23C156.66,1462.23 -22.234,1283.34 -22.234,1062.99L-22.234,377.008C-22.234,156.66 156.66,-22.234 377.008,-22.234L1062.99,-22.234C1283.34,-22.234 1462.23,156.66 1462.23,377.008ZM1349.73,377.008C1349.73,218.751 1221.25,90.266 1062.99,90.266L377.008,90.266C218.751,90.266 90.266,218.751 90.266,377.008L90.266,1062.99C90.266,1221.25 218.751,1349.73 377.008,1349.73L1062.99,1349.73C1221.25,1349.73 1349.73,1221.25 1349.73,1062.99L1349.73,377.008Z"
            style="fill:white;"
    />
  </g>
    <g transform="matrix(1.06524,0,0,1.06524,-110.431,-24.6297)">
    <path
            d="M997.357,481.291C971.24,455.575 940.383,435.85 904.786,422.114C869.189,408.374 831.427,401.503 791.501,401.503C750.421,401.503 712.744,408.662 678.469,422.979C644.194,437.29 614.587,457.642 589.649,484.035C564.71,510.427 545.424,541.691 531.789,577.827C518.154,613.963 511.336,653.89 511.336,697.608C511.336,741.188 518.138,781.249 531.741,817.792C545.344,854.336 564.528,885.957 589.292,912.655C614.061,939.349 643.448,960.005 677.454,974.623C711.459,989.242 748.867,996.551 789.677,996.551C826.22,996.551 859.852,990.595 890.575,978.684C921.297,966.772 948.332,949.82 971.679,927.826C995.026,905.833 1014.01,879.493 1028.63,848.808C1043.25,818.117 1052.58,784.162 1056.64,746.942L796.877,746.942L796.877,660.049L1155.31,660.049L1158.45,701.771C1158.45,759.631 1149.47,812.569 1131.5,860.585C1113.54,908.595 1088.07,950.129 1055.11,985.187C1022.16,1020.24 983.098,1047.29 937.927,1066.34C892.756,1085.39 842.932,1094.91 788.455,1094.91C732.425,1094.91 680.639,1084.98 633.099,1065.12C585.559,1045.25 544.11,1017.51 508.751,981.88C473.392,946.251 445.95,904.448 426.426,856.469C406.901,808.49 397.139,756.279 397.139,699.836C397.139,643.266 406.986,590.857 426.68,542.608C446.373,494.355 473.881,452.295 509.203,416.428C544.53,380.562 586.064,352.716 633.805,332.89C681.551,313.058 733.474,303.143 789.574,303.143C842.559,303.143 893.176,312.279 941.424,330.55C989.678,348.822 1032.65,375.011 1070.35,409.116L997.357,481.291Z"
            style="fill:white;fill-rule:nonzero;"
    />
  </g>
</svg>