<svg width="100%" height="100%" viewBox="0 0 1920 1920" version="1.1"
     xmlns="http://www.w3.org/2000/svg"
     xml:space="preserve"
     style="fill-rule:evenodd;clip-rule:evenodd;stroke-linejoin:round;stroke-miterlimit:2;">
    <g transform="matrix(1.27622,0,0,1.27622,-278.928,-196.325)">
        <g transform="matrix(1,0,0,1,-36.6923,403.162)">
            <path d="M299.711,469.034C515.122,570.436 670.402,731.968 774.93,944.253C562.675,839.695 401.605,683.953 299.711,469.034Z"/>
        </g>
        <g transform="matrix(1,0,0,-1,903.605,1816.45)">
            <path d="M299.711,469.034C515.122,570.436 670.402,731.968 774.93,944.253C562.675,839.695 401.605,683.953 299.711,469.034Z"/>
        </g>
        <g transform="matrix(0.967557,0.252651,-0.252651,0.967557,329.142,49.4898)">
            <path d="M299.711,469.034C515.122,570.436 670.402,731.968 774.93,944.253C562.675,839.695 401.605,683.953 299.711,469.034Z"/>
        </g>
        <g transform="matrix(0.707107,0.707107,-0.707107,0.707107,1090.37,-270.242)">
            <path d="M299.711,469.034C515.122,570.436 670.402,731.968 774.93,944.253C562.675,839.695 401.605,683.953 299.711,469.034Z"/>
        </g>
        <g transform="matrix(0.965926,-0.258819,-0.258819,-0.965926,936.791,1691.67)">
            <path d="M299.711,469.034C515.122,570.436 670.402,731.968 774.93,944.253C562.675,839.695 401.605,683.953 299.711,469.034Z"/>
        </g>
    </g>
</svg>